<svg xmlns="http://www.w3.org/2000/svg" version="1.0" viewBox="0 0 227 54">
  <path d="M46.2 2.5C50 4.7 52 9.1 57.5 27c5.3 17.4 6.6 20.3 9.8 22.4C70 51.3 78 52.6 78 51.3c0-1.8-11-37.7-12.7-41.6-2.5-5.7-6-7.7-14.5-8.3-7-.5-7.2-.4-4.6 1.1zm39.7.9c1.2 1.3 2.5 4 2.8 6.1l.6 3.8 1.8-3.5c1-2 3.2-4.7 4.9-6.2L99.2 1H83.7l2.2 2.4zm32.4-.6c3.6 2.5 6.5 6.9 10.5 16 2.9 6.5 3.2 8.2 3.2 16.8 0 9.5-1.4 14.6-4.2 15.7-.7.3 2 .6 6 .6 6.5.1 7.6-.2 9.7-2.4 2.3-2.3 2.5-3.1 2.4-12.7-.1-10-.2-10.6-4.7-20.7-5.9-13.1-7.6-14.4-18-14.9l-7.7-.3 2.8 1.9zm30 0c.9 1 2 3.4 2.4 5.3l.8 3.4 5.1-5.3 5-5.2h-7.4c-7.2 0-7.4.1-5.9 1.8zm67.1.5c2.1 1.2 4.7 3.8 5.7 5.7l1.9 3.5V1h-11.5l3.9 2.3zm-210 0c2.8 2 3.6 8 3.6 27.3C9 52.4 8.8 52 20 52h7.3l-2.4-2.6c-2.4-2.5-2.4-2.9-2.7-23.2-.4-25-.1-24.2-11-24.2-6.4 0-7.3.2-5.8 1.3zm177.5 3.6c-3.6 3.5-3.9 4.3-3.9 9.3 0 6.3 2.5 10.8 7.9 14.5 2.9 2 4.7 2.3 12 2.3 10.5 0 15.4 1.3 17.5 4.5 2.1 3.1 2 8.4 0 11.4-1.6 2.2-1.6 2.3.2 1.3 7.8-4.2 10.5-13.9 6.1-21.7-3.7-6.5-8.3-8.5-20.4-8.5-9.3 0-10.4-.2-13.1-2.5-3.6-3-4.5-6.9-2.7-11.2.8-1.8 1.1-3.3.8-3.3-.3 0-2.3 1.7-4.4 3.9zM181 46.7V52h10.5l-3.3-2c-1.8-1.1-4.1-3.4-5.2-5.2l-2-3.3v5.2z"/>
</svg>
